<svg id="Слой_1" data-name="Слой 1" xmlns="http://www.w3.org/2000/svg" viewBox="0 0 798.48 489"><defs><style>.cls-1{fill:#fff;}.cls-2{font-size:268px;font-family:Raavi;}.cls-3{font-size:44px;font-family:MyriadPro-Regular, Myriad Pro;}.cls-4{letter-spacing:0.01em;}.cls-5{letter-spacing:-0.01em;}.cls-6{letter-spacing:0em;}.cls-7{letter-spacing:-0.02em;}.cls-8{letter-spacing:0.01em;}.cls-9{letter-spacing:0em;}.cls-10{letter-spacing:0em;}.cls-11{letter-spacing:0em;}.cls-12{letter-spacing:-0.01em;}.cls-13{letter-spacing:0.02em;}.cls-14{letter-spacing:-0.01em;}.cls-15{letter-spacing:0.01em;}.cls-16{letter-spacing:-0.01em;}.cls-17{letter-spacing:-0.01em;}.cls-18{letter-spacing:-0.01em;}.cls-19{letter-spacing:-0.08em;}</style></defs><title>404</title><rect class="cls-1" x="7.5" y="7.5" width="735" height="474" rx="43.69"/><path d="M1240.81,282A36.23,36.23,0,0,1,1277,318.19V704.81A36.23,36.23,0,0,1,1240.81,741H593.19A36.24,36.24,0,0,1,557,704.81V318.19A36.24,36.24,0,0,1,593.19,282h647.62m0-15H593.19A51.19,51.19,0,0,0,542,318.19V704.81A51.19,51.19,0,0,0,593.19,756h647.62A51.19,51.19,0,0,0,1292,704.81V318.19A51.19,51.19,0,0,0,1240.81,267Z" transform="translate(-542 -267)"/><text class="cls-2" transform="translate(138.9 238.83)">404</text><text class="cls-3" transform="translate(105.62 346.38)"><tspan class="cls-4">К</tspan><tspan x="24.38" y="0">а</tspan><tspan class="cls-5" x="45.58" y="0">ж</tspan><tspan class="cls-6" x="74.67" y="0">е</tspan><tspan class="cls-7" x="96.53" y="0">т</tspan><tspan class="cls-8" x="113.74" y="0">с</tspan><tspan x="133.85" y="0">я, </tspan><tspan class="cls-9" x="174.1" y="0">ч</tspan><tspan class="cls-7" x="196.63" y="0">т</tspan><tspan x="213.84" y="0">о-</tspan><tspan class="cls-7" x="251.5" y="0">т</tspan><tspan x="268.71" y="0">о по</tspan><tspan class="cls-10" x="350.15" y="0">ш</tspan><tspan class="cls-11" x="382.79" y="0">ло не </tspan><tspan class="cls-12" x="493.98" y="0">т</tspan><tspan x="511.45" y="0">ак...</tspan><tspan class="cls-13" x="0" y="52.8">с</tspan><tspan class="cls-14" x="20.42" y="52.8">т</tspan><tspan x="38.19" y="52.8">раницы не </tspan><tspan class="cls-15" x="251.02" y="52.8">с</tspan><tspan x="271.34" y="52.8">у</tspan><tspan class="cls-6" x="292.07" y="52.8">щ</tspan><tspan x="324.85" y="52.8">е</tspan><tspan class="cls-13" x="346.89" y="52.8">с</tspan><tspan class="cls-16" x="367.31" y="52.8">т</tspan><tspan class="cls-17" x="385.08" y="52.8">в</tspan><tspan class="cls-18" x="406.6" y="52.8">у</tspan><tspan class="cls-6" x="426.93" y="52.8">е</tspan><tspan class="cls-19" x="448.79" y="52.8">т</tspan><tspan x="463.54" y="52.8">.</tspan></text></svg>